<mxfile host="app.diagrams.net" modified="2022-04-01T06:11:00.115Z" agent="5.0 (Windows NT 10.0; Win64; x64) AppleWebKit/537.36 (KHTML, like Gecko) Chrome/99.0.4844.51 Safari/537.36 Edg/99.0.1150.39" etag="wQLtCNwNJ11rlOSSOIwD" version="17.1.3" type="github">
  <diagram id="C5RBs43oDa-KdzZeNtuy" name="Page-1">
    <mxGraphModel dx="1007" dy="641" grid="1" gridSize="10" guides="1" tooltips="1" connect="1" arrows="1" fold="1" page="1" pageScale="1" pageWidth="827" pageHeight="1169" math="0" shadow="0">
      <root>
        <mxCell id="WIyWlLk6GJQsqaUBKTNV-0" />
        <mxCell id="WIyWlLk6GJQsqaUBKTNV-1" parent="WIyWlLk6GJQsqaUBKTNV-0" />
        <mxCell id="Ee2P2uIqJswC7QmD2PLE-0" value="开始" style="ellipse;whiteSpace=wrap;html=1;" vertex="1" parent="WIyWlLk6GJQsqaUBKTNV-1">
          <mxGeometry x="90" y="130" width="78" height="43" as="geometry" />
        </mxCell>
        <mxCell id="Ee2P2uIqJswC7QmD2PLE-27" value="" style="edgeStyle=orthogonalEdgeStyle;rounded=0;orthogonalLoop=1;jettySize=auto;html=1;" edge="1" parent="WIyWlLk6GJQsqaUBKTNV-1" source="Ee2P2uIqJswC7QmD2PLE-5" target="Ee2P2uIqJswC7QmD2PLE-26">
          <mxGeometry relative="1" as="geometry" />
        </mxCell>
        <mxCell id="Ee2P2uIqJswC7QmD2PLE-5" value="自动追踪溯源需求输入" style="rounded=1;whiteSpace=wrap;html=1;fontSize=12;glass=0;strokeWidth=1;shadow=0;" vertex="1" parent="WIyWlLk6GJQsqaUBKTNV-1">
          <mxGeometry x="203" y="131.5" width="87" height="40" as="geometry" />
        </mxCell>
        <mxCell id="Ee2P2uIqJswC7QmD2PLE-21" value="" style="edgeStyle=orthogonalEdgeStyle;rounded=0;orthogonalLoop=1;jettySize=auto;html=1;exitX=1;exitY=0.5;exitDx=0;exitDy=0;" edge="1" parent="WIyWlLk6GJQsqaUBKTNV-1" source="Ee2P2uIqJswC7QmD2PLE-55" target="Ee2P2uIqJswC7QmD2PLE-23">
          <mxGeometry relative="1" as="geometry">
            <mxPoint x="1200" y="151.5" as="sourcePoint" />
          </mxGeometry>
        </mxCell>
        <mxCell id="Ee2P2uIqJswC7QmD2PLE-23" value="结束" style="ellipse;whiteSpace=wrap;html=1;" vertex="1" parent="WIyWlLk6GJQsqaUBKTNV-1">
          <mxGeometry x="800" y="130" width="78" height="43" as="geometry" />
        </mxCell>
        <mxCell id="Ee2P2uIqJswC7QmD2PLE-24" style="edgeStyle=orthogonalEdgeStyle;rounded=0;orthogonalLoop=1;jettySize=auto;html=1;exitX=1;exitY=0.5;exitDx=0;exitDy=0;entryX=0;entryY=0.5;entryDx=0;entryDy=0;" edge="1" parent="WIyWlLk6GJQsqaUBKTNV-1" source="Ee2P2uIqJswC7QmD2PLE-0" target="Ee2P2uIqJswC7QmD2PLE-5">
          <mxGeometry relative="1" as="geometry">
            <mxPoint x="300" y="161.4814814814814" as="sourcePoint" />
            <mxPoint x="400" y="201.4814814814814" as="targetPoint" />
          </mxGeometry>
        </mxCell>
        <mxCell id="Ee2P2uIqJswC7QmD2PLE-35" value="" style="edgeStyle=orthogonalEdgeStyle;rounded=0;orthogonalLoop=1;jettySize=auto;html=1;" edge="1" parent="WIyWlLk6GJQsqaUBKTNV-1" source="Ee2P2uIqJswC7QmD2PLE-26" target="Ee2P2uIqJswC7QmD2PLE-34">
          <mxGeometry relative="1" as="geometry" />
        </mxCell>
        <mxCell id="Ee2P2uIqJswC7QmD2PLE-26" value="关联分析管理" style="rounded=1;whiteSpace=wrap;html=1;fontSize=12;glass=0;strokeWidth=1;shadow=0;" vertex="1" parent="WIyWlLk6GJQsqaUBKTNV-1">
          <mxGeometry x="340" y="131.5" width="87" height="40" as="geometry" />
        </mxCell>
        <mxCell id="Ee2P2uIqJswC7QmD2PLE-38" value="" style="edgeStyle=orthogonalEdgeStyle;rounded=0;orthogonalLoop=1;jettySize=auto;html=1;" edge="1" parent="WIyWlLk6GJQsqaUBKTNV-1" source="Ee2P2uIqJswC7QmD2PLE-34" target="Ee2P2uIqJswC7QmD2PLE-37">
          <mxGeometry relative="1" as="geometry">
            <Array as="points">
              <mxPoint x="574" y="50" />
            </Array>
          </mxGeometry>
        </mxCell>
        <mxCell id="Ee2P2uIqJswC7QmD2PLE-56" value="" style="edgeStyle=orthogonalEdgeStyle;rounded=0;orthogonalLoop=1;jettySize=auto;html=1;" edge="1" parent="WIyWlLk6GJQsqaUBKTNV-1" source="Ee2P2uIqJswC7QmD2PLE-34" target="Ee2P2uIqJswC7QmD2PLE-55">
          <mxGeometry relative="1" as="geometry" />
        </mxCell>
        <mxCell id="Ee2P2uIqJswC7QmD2PLE-34" value="是否需要白名单&amp;amp;信息组" style="rhombus;whiteSpace=wrap;html=1;" vertex="1" parent="WIyWlLk6GJQsqaUBKTNV-1">
          <mxGeometry x="533.5" y="111.5" width="80" height="80" as="geometry" />
        </mxCell>
        <mxCell id="Ee2P2uIqJswC7QmD2PLE-40" value="" style="edgeStyle=orthogonalEdgeStyle;rounded=0;orthogonalLoop=1;jettySize=auto;html=1;entryX=0.5;entryY=0;entryDx=0;entryDy=0;" edge="1" parent="WIyWlLk6GJQsqaUBKTNV-1" source="Ee2P2uIqJswC7QmD2PLE-37" target="Ee2P2uIqJswC7QmD2PLE-26">
          <mxGeometry relative="1" as="geometry">
            <mxPoint x="426.9999999999998" y="59.999999999999886" as="targetPoint" />
          </mxGeometry>
        </mxCell>
        <mxCell id="Ee2P2uIqJswC7QmD2PLE-37" value="白名单管理&amp;amp;安全信息管理" style="rounded=1;whiteSpace=wrap;html=1;fontSize=12;glass=0;strokeWidth=1;shadow=0;" vertex="1" parent="WIyWlLk6GJQsqaUBKTNV-1">
          <mxGeometry x="440" y="30" width="87" height="40" as="geometry" />
        </mxCell>
        <mxCell id="Ee2P2uIqJswC7QmD2PLE-50" value="No" style="text;html=1;align=center;verticalAlign=middle;resizable=0;points=[];autosize=1;strokeColor=none;fillColor=none;" vertex="1" parent="WIyWlLk6GJQsqaUBKTNV-1">
          <mxGeometry x="620" y="130" width="30" height="20" as="geometry" />
        </mxCell>
        <mxCell id="Ee2P2uIqJswC7QmD2PLE-51" value="Yes" style="text;html=1;align=center;verticalAlign=middle;resizable=0;points=[];autosize=1;strokeColor=none;fillColor=none;" vertex="1" parent="WIyWlLk6GJQsqaUBKTNV-1">
          <mxGeometry x="573.5" y="90" width="30" height="20" as="geometry" />
        </mxCell>
        <mxCell id="Ee2P2uIqJswC7QmD2PLE-55" value="攻击链聚合分析管理" style="rounded=1;whiteSpace=wrap;html=1;fontSize=12;glass=0;strokeWidth=1;shadow=0;" vertex="1" parent="WIyWlLk6GJQsqaUBKTNV-1">
          <mxGeometry x="660" y="131.5" width="87" height="40" as="geometry" />
        </mxCell>
      </root>
    </mxGraphModel>
  </diagram>
</mxfile>
